<svg width="28" height="28" viewBox="0 0 28 28" fill="none" xmlns="http://www.w3.org/2000/svg">
<path d="M6.5 10.25C8.5625 10.25 9.59375 10.25 10.2338 9.60875C10.875 8.96875 10.875 7.9375 10.875 5.875C10.875 3.8125 10.875 2.78125 10.2338 2.14125C9.59375 1.5 8.5625 1.5 6.5 1.5C4.4375 1.5 3.40625 1.5 2.76625 2.14125C2.125 2.78125 2.125 3.8125 2.125 5.875C2.125 7.9375 2.125 8.96875 2.76625 9.60875C3.40625 10.25 4.4375 10.25 6.5 10.25ZM6.5 10.25V16.5M6.5 16.5C5.6425 16.5 4.95 17.19 3.57125 18.5713C2.19 19.9513 1.5 20.6425 1.5 21.5C1.5 22.3575 2.19 23.05 3.57125 24.4288C4.95125 25.81 5.6425 26.5 6.5 26.5C7.3575 26.5 8.05 25.81 9.42875 24.4288C10.81 23.0488 11.5 22.3575 11.5 21.5M6.5 16.5C7.3575 16.5 8.04875 17.19 9.42875 18.5713C10.81 19.95 11.5 20.6425 11.5 21.5M11.5 21.5H17.75M17.75 21.5C17.75 19.4375 17.75 18.4063 18.3913 17.7663C19.0313 17.125 20.0625 17.125 22.125 17.125C24.1875 17.125 25.2188 17.125 25.8588 17.7663C26.5 18.4063 26.5 19.4375 26.5 21.5C26.5 23.5625 26.5 24.5938 25.8588 25.2338C25.2188 25.875 24.1875 25.875 22.125 25.875C20.0625 25.875 19.0313 25.875 18.3913 25.2338C17.75 24.5938 17.75 23.5625 17.75 21.5Z" stroke="#9DFF3A" stroke-width="1.5" stroke-linecap="round" stroke-linejoin="round"/>
</svg>
